<svg width="120" height="26" viewBox="0 0 120 26" fill="none" xmlns="http://www.w3.org/2000/svg">
<path fill-rule="evenodd" clip-rule="evenodd" d="M117.642 22.1738H117.355V22.8515H117.626C117.874 22.8515 118.028 22.7446 118.028 22.5126C118.028 22.2894 117.891 22.1738 117.642 22.1738ZM118.226 24.1447L117.568 23.164H117.355V24.1096H116.976V21.8174H117.642C118.105 21.8174 118.412 22.0566 118.412 22.4855C118.412 22.8156 118.242 23.0293 117.968 23.1194L118.601 24.0554L118.226 24.1447ZM117.652 21.2027C116.728 21.2027 115.995 21.8613 115.995 23.0396C115.995 24.206 116.728 24.867 117.652 24.867C118.584 24.867 119.319 24.206 119.319 23.0396C119.319 21.8613 118.576 21.2027 117.652 21.2027ZM117.652 25.1086C116.51 25.1086 115.713 24.2778 115.713 23.0396C115.713 21.8078 116.524 20.9587 117.652 20.9587C118.797 20.9587 119.591 21.7983 119.591 23.0396C119.591 24.2714 118.779 25.1086 117.652 25.1086ZM17.4749 14.1955H11.5765C11.9438 13.5848 17.4749 4.19845 17.4749 4.19845V14.1955ZM14.9566 0.000797274L0 25.107H5.0848C5.0848 25.107 8.773 18.8571 8.90018 18.6435H17.4828L17.486 25.1102L22.3125 25.1094V0H14.9566V0.000797274ZM25.736 0V25.1102H30.4267V0.000797274L25.736 0ZM33.8407 0H38.5243V25.1102H33.8407V0ZM48.8471 13.2515C46.2956 12.5563 45.7624 12.1656 45.8296 11.0566C45.8849 10.0504 46.6693 9.47162 47.9798 9.47162C49.6007 9.47162 51.5826 10.068 53.2857 11.0662L53.5543 11.2264L54.1997 7.03674L54.0472 6.961C52.2983 6.12785 50.205 5.68377 47.9798 5.68377C45.8382 5.68377 44.0175 6.37421 42.8412 7.62433C41.9107 8.62172 41.4328 9.91251 41.4573 11.3468C41.5386 15.2184 43.3057 16.3138 47.4916 17.4372C50.2595 18.15 50.8211 18.5733 50.8014 19.951C50.7856 21.19 50.0778 21.6572 48.1954 21.6572C46.2269 21.6572 44.0072 20.8997 42.0813 19.585L41.8017 19.3913L41.1516 23.5969L41.2914 23.6767C42.7907 24.5377 45.3524 25.4418 48.0532 25.4418C50.6711 25.4418 52.604 24.7944 53.8 23.5323C54.7321 22.5421 55.1903 21.2035 55.1689 19.542C55.1081 15.3842 53.0993 14.3964 48.8471 13.2515ZM66.5598 20.8782L66.3173 20.946C65.995 21.0385 65.5874 21.0855 65.0305 21.0855C63.6402 21.0855 62.994 20.431 62.994 19.015V10.1254H66.4334L66.4966 6.03696H62.994V0H58.3808V6.03696H55.9715V10.1246H58.3808V19.7557C58.3808 23.5674 60.2877 25.4323 64.2192 25.4323C65.4878 25.4323 66.2651 25.2816 66.9571 25.1245L67.1672 25.0822L66.5598 20.8782ZM74.922 21.6572C73.7679 21.6572 73.0538 20.9181 73.0538 19.7325C73.0538 17.6206 75.0042 16.2405 78.6995 15.7222V19.8585C77.5525 21.0281 76.2499 21.6572 74.922 21.6572ZM76.5422 5.6439C73.6257 5.6439 71.4234 6.38537 69.6721 7.10292L69.5062 7.17069L70.1074 11.1977L70.3696 11.0773C72.4716 10.107 74.2506 9.65419 75.9837 9.65419C77.8305 9.65419 78.6995 10.4523 78.6995 12.1712V12.6639C71.7733 13.4078 68.4011 15.8753 68.4011 20.2093C68.4011 23.4112 70.3878 25.4777 73.4693 25.4777C75.6021 25.4777 77.3732 24.6645 79.0052 23.0077C79.0937 23.5626 79.3314 25.1078 79.3314 25.1078H83.3838V12.0404C83.3838 7.68174 81.2107 5.6439 76.5422 5.6439ZM95.4137 20.8782L95.1751 20.946C94.8544 21.0385 94.4405 21.0855 93.893 21.0855C92.498 21.0855 91.844 20.431 91.844 19.015V10.1254H95.2904L95.3536 6.03696H91.844V0H87.2228V6.03696H84.8254V10.1246H87.2228V19.7557C87.2228 23.5674 89.1424 25.4323 93.0763 25.4323C94.3409 25.4323 95.1546 25.2744 95.8134 25.1245L96.0188 25.0822L95.4137 20.8782ZM101.458 13.4795C101.669 10.7449 102.809 9.17344 104.61 9.17344C107.035 9.17344 107.678 11.456 107.774 13.4795H101.458ZM111.495 19.4088C109.397 20.9284 107.681 21.583 105.742 21.583C103.224 21.583 101.66 19.8035 101.392 16.7077H112.321L112.37 15.4033C112.37 8.94063 109.797 5.65347 104.716 5.6447C102.484 5.63753 100.653 6.36863 99.2749 7.8109C97.5963 9.55294 96.7084 12.2645 96.7084 15.6258C96.7084 21.709 100.002 25.4777 105.281 25.4777C107.859 25.4777 110.198 24.7275 112.238 23.2613L112.353 23.1815L111.784 19.1952L111.495 19.4088Z" fill="#ffffff"/>
</svg>
