<svg preserveAspectRatio="none" overflow="visible" style="display: block;" width="38.5" height="38.5" viewBox="0 0 38.5 38.5" fill="none" xmlns="http://www.w3.org/2000/svg">
<g id="Icon">
<path id="Vector" d="M0 5.5C0 4.04131 0.579463 2.64236 1.61091 1.61091C2.64236 0.579463 4.04131 0 5.5 0H33C34.4587 0 35.8576 0.579463 36.8891 1.61091C37.9205 2.64236 38.5 4.04131 38.5 5.5V33C38.5 34.4587 37.9205 35.8576 36.8891 36.8891C35.8576 37.9205 34.4587 38.5 33 38.5H5.5C4.04131 38.5 2.64236 37.9205 1.61091 36.8891C0.579463 35.8576 0 34.4587 0 33V5.5Z" fill="#E5331E"/>
<path id="Vector 78" d="M10 10L29 29M10 29L29 10" stroke="white" stroke-width="4" stroke-linecap="round"/>
</g>
</svg>
