<svg preserveAspectRatio="none" overflow="visible" style="display: block;" width="22.5722" height="22.5722" viewBox="0 0 22.5722 22.5722" fill="none" xmlns="http://www.w3.org/2000/svg">
<g id="uil:exchange">
<path id="Vector" d="M16.9296 9.40536C16.9296 9.15593 16.8305 8.91671 16.6541 8.74033C16.4777 8.56395 16.2385 8.46486 15.9891 8.46486H5.08859L7.25176 6.31109C7.42886 6.13399 7.52836 5.89379 7.52836 5.64333C7.52836 5.39288 7.42886 5.15267 7.25176 4.97557C7.07466 4.79847 6.83446 4.69898 6.584 4.69898C6.33354 4.69898 6.09334 4.79847 5.91624 4.97557L2.15421 8.7376C2.02371 8.86986 1.9353 9.03781 1.90015 9.22026C1.865 9.40271 1.88468 9.59148 1.9567 9.76276C2.02726 9.93451 2.14708 10.0815 2.30106 10.1853C2.45504 10.2891 2.63629 10.3449 2.82197 10.3459H15.9891C16.2385 10.3459 16.4777 10.2468 16.6541 10.0704C16.8305 9.89402 16.9296 9.6548 16.9296 9.40536ZM20.6164 12.81C20.5458 12.6382 20.426 12.4912 20.272 12.3875C20.118 12.2837 19.9368 12.2278 19.7511 12.2269H6.584C6.33456 12.2269 6.09534 12.326 5.91896 12.5024C5.74258 12.6787 5.64349 12.918 5.64349 13.1674C5.64349 13.4168 5.74258 13.6561 5.91896 13.8324C6.09534 14.0088 6.33456 14.1079 6.584 14.1079H17.4845L15.3213 16.2617C15.2332 16.3491 15.1632 16.4531 15.1154 16.5677C15.0677 16.6823 15.0431 16.8053 15.0431 16.9294C15.0431 17.0536 15.0677 17.1765 15.1154 17.2911C15.1632 17.4057 15.2332 17.5098 15.3213 17.5972C15.4088 17.6853 15.5128 17.7553 15.6274 17.8031C15.742 17.8508 15.8649 17.8754 15.9891 17.8754C16.1132 17.8754 16.2362 17.8508 16.3508 17.8031C16.4654 17.7553 16.5694 17.6853 16.6568 17.5972L20.4189 13.8352C20.5494 13.7029 20.6378 13.5349 20.6729 13.3525C20.7081 13.1701 20.6884 12.9813 20.6164 12.81Z" fill="white"/>
</g>
</svg>
