<svg preserveAspectRatio="none" overflow="visible" style="display: block;" width="243" height="279.943" viewBox="0 0 243 279.943" fill="none" xmlns="http://www.w3.org/2000/svg">
<path id="Vector 4" d="M0.5 131.88V36.319C0.5 28.7005 2.9291 21.2805 7.43438 15.137C14.1818 5.93594 24.9091 0.5 36.319 0.5H49.3219C60.7246 0.5 71.4686 5.84229 78.3505 14.934L235.122 222.044C239.909 228.369 242.5 236.085 242.5 244.017V245.157C242.5 253.776 239.254 262.079 233.408 268.412C226.917 275.444 217.783 279.443 208.214 279.443H124.684C113.544 279.443 103.016 274.342 96.1119 265.599L8.33469 154.443C3.26017 148.017 0.5 140.068 0.5 131.88Z" stroke="#38434F"/>
</svg>
